<?xml version="1.0" encoding="utf-8"?>
<!-- Generator: Adobe Illustrator 26.0.3, SVG Export Plug-In . SVG Version: 6.00 Build 0)  -->
<svg version="1.1" id="Camada_1" xmlns="http://www.w3.org/2000/svg" xmlns:xlink="http://www.w3.org/1999/xlink" x="0px" y="0px"
	 viewBox="0 0 56 56" style="enable-background:new 0 0 56 56;" xml:space="preserve">
<style type="text/css">
	.st0{fill:#635994;}
	.st1{fill:#ECECEC;}
	.st2{fill:#F8312F;}
	.st3{fill:#321B41;}
</style>
<path class="st0" d="M8,13.8C8,10.6,10.6,8,13.8,8H40c4.4,0,8,3.6,8,8v26.2c0,3.2-2.6,5.8-5.8,5.8H13.8C10.6,48,8,45.4,8,42.2V13.8z
	"/>
<rect x="13.8" y="32.4" class="st1" width="28.4" height="15.6"/>
<path class="st2" d="M13.8,30.9c0-1.6,1.3-2.9,2.9-2.9h22.5c1.6,0,2.9,1.3,2.9,2.9v1.5H13.8V30.9z"/>
<path class="st3" d="M13.8,8h26.9c0.8,0,1.5,0.7,1.5,1.5v12c0,1.2-1,2.2-2.2,2.2H16c-1.2,0-2.2-1-2.2-2.2V8z"/>
<path class="st1" d="M20.7,10.2c0-1.2,1-2.2,2.2-2.2h16.7v12.4c0,1.2-1,2.2-2.2,2.2H22.9c-1.2,0-2.2-1-2.2-2.2V10.2z"/>
<path class="st3" d="M34.2,9.5H36c1.2,0,2.2,1,2.2,2.2v7.3c0,1.2-1,2.2-2.2,2.2h-1.8c-1.2,0-2.2-1-2.2-2.2v-7.3
	C32,10.4,33,9.5,34.2,9.5z"/>
</svg>
